<svg width="458" height="439" viewBox="0 0 458 439" fill="none" xmlns="http://www.w3.org/2000/svg">
<path d="M159.16 438.67L119.64 370.77L41.1 354.6L49.93 277.83L0 219.33L49.93 161.35L41.1 84.6L119.64 68.39L159.16 0L228.87 32.39L298.58 0L338.63 68.41L416.64 84.6L407.81 161.37L457.74 219.33L407.81 277.83L416.64 354.6L338.63 370.77L298.58 438.67L228.87 406.28L159.16 438.67ZM206.5 288.8L324.58 171.29L301.18 149.87L206.5 243.88L157.1 192.19L133.16 215.67C133.17 215.67 206.5 288.8 206.5 288.8Z" fill="#05A944"/>
</svg>
